<?xml version="1.0" ?><!DOCTYPE svg  PUBLIC '-//W3C//DTD SVG 1.1//EN'  'http://www.w3.org/Graphics/SVG/1.1/DTD/svg11.dtd'><svg height="512px" id="icon_design" style="enable-background:new 0 0 512 512;" version="1.1" viewBox="0 0 512 512" width="512px" xml:space="preserve" xmlns="http://www.w3.org/2000/svg" xmlns:xlink="http://www.w3.org/1999/xlink"><style type="text/css"><![CDATA[
	.st0{fill:none;}
	.st1{fill:#373737;}
]]></style><g><path class="st1" d="M194.05,175.441c-0.021-0.116-2.373-8.438-5.812-17.055c-1.729-4.324-3.67-8.669-5.99-12.445    c-2.521-3.354-4.451-7.794-12.034-8.553c-9.777,1.308-11.063,8.5-13.025,15.746c-5.104,23.15-26.769,137.953-38.37,199.874    c-0.062,0.284-0.115,0.58-0.179,0.864c0.147-0.115,0.264-0.264,0.411-0.348c2.679-1.973,5.526-3.766,8.543-5.39l12.234-6.528    l0.422-0.232l32.832-17.55c-0.095-0.4,0-0.844-0.168-1.213l-6.477-16.01l10.652-13.605c1.635-2.089,2.036-4.904,1.045-7.372    l-6.477-16.031l10.652-13.543c1.667-2.119,2.067-4.904,1.045-7.403l-6.477-16.011l10.652-13.573    c1.635-2.12,2.025-4.904,1.045-7.394l-6.477-16.01l10.652-13.605C194.197,180.177,194.693,177.762,194.05,175.441z"/><path class="st1" d="M386.931,288.736c-11.665-21.812-36.851-31.736-59.695-25.028c-3.333,0.981-6.612,2.32-9.787,3.997    l-128.134,68.502l-25.545,13.638l-16.475,8.817l-10.958,5.854c-0.316,0.179-0.601,0.442-0.928,0.611    c-3.091,1.74-5.938,3.775-8.512,6.012c-7.446,6.465-12.751,14.787-15.504,23.899c-1.424,4.746-1.93,9.714-1.94,14.724    c0,2.995,0.253,5.948,0.78,8.943c0.929,5.21,2.426,10.378,5.042,15.282c13.395,24.996,44.465,34.425,69.472,21.052l181.101-96.842    c24.563-13.109,33.992-43.305,21.632-68.101C387.258,289.664,387.163,289.168,386.931,288.736z"/><path class="st1" d="M482.929,51.188c-0.665,0.211-45.921,15.578-93.878,91.104c-24.11,37.969-41.513,73.438-53.431,101.102    c2.004-0.168,4.008-0.337,6.001-0.337c22.392-0.063,44.118,10.874,57.428,30.217c22.992-33.729,51.817-78.016,64.02-104.847    c21.284-49.454,24.301-80.167,24.269-110.193v-3.882c-0.021-1.075-0.517-2.088-1.413-2.721    C485.049,51.02,483.951,50.841,482.929,51.188z M435.13,182.982c-9.365,16.073-19.892,27.644-23.487,25.84    c-3.629-1.824,1.075-16.379,10.441-32.484c9.396-16.115,19.891-27.633,23.487-25.84    C449.168,152.333,444.506,166.824,435.13,182.982z"/><path class="st1" d="M92.726,393.203c0.042-1.076,0.105-2.173,0.264-3.069v-0.095l0.042-0.254l0.032-0.084l0.031-0.127v-0.137    l0.053-0.18c0-0.084,0.032-0.284,0.063-0.464c0.084-0.4,0.169-0.98,0.348-1.771c0.254-1.529,0.696-3.797,1.213-6.666    c1.087-5.737,2.637-13.985,4.525-23.962c1.592-8.522,3.448-18.468,5.452-29.057c-0.78-1.213-1.477-2.5-2.278-3.682    c-20.956-31.324-37.167-37.473-37.895-37.736c-1.318-0.464-2.764-0.063-3.66,1.044c-0.864,1.107-0.991,2.605-0.221,3.829    c0.084,0.031,9.365,15.43,9.207,25.228c-0.274,4.557-1.149,6.729-5.875,8.101c-0.864,0.2-1.75,0.316-2.594,0.316    c-7.531,0.633-13.933-11.687-16.98-28.54c-3.164-16.442-3.66-35.648-3.66-45.51c0-4.061,0.095-6.497,0.095-6.497    c0.053-1.424-0.802-2.721-2.12-3.217c-1.339-0.496-2.848-0.084-3.744,1.044c-0.2,0.264-18.267,22.792-18.299,56.12    c0,14.302,3.365,30.575,12.952,47.65c10.947,19.238,38.369,39.108,61.847,53.663C91.84,397.147,92.251,395.175,92.726,393.203z"/><rect class="st0" height="512" width="512"/></g></svg>