<?xml version="1.0" ?><!DOCTYPE svg  PUBLIC '-//W3C//DTD SVG 1.1//EN'  'http://www.w3.org/Graphics/SVG/1.1/DTD/svg11.dtd'><svg height="512px" id="icon_design" style="enable-background:new 0 0 512 512;" version="1.1" viewBox="0 0 512 512" width="512px" xml:space="preserve" xmlns="http://www.w3.org/2000/svg" xmlns:xlink="http://www.w3.org/1999/xlink"><style type="text/css"><![CDATA[
	.st0{fill:none;}
	.st1{fill:#373737;}
]]></style><g><path class="st1" d="M155.515,309.273c-1.562,0-3.193-0.049-4.804-0.187c-28.066-2.442-49.268-26.054-49.268-53.711    c0-1.025-0.049-2.041,0.068-3.007c0.215-1.72-1.074-2.364-2.07-0.811c-4.024,6.2-6.661,13.428-7.344,21.328    c-0.136,1.317-0.185,2.686-0.185,4.111c0,24.062,18.457,44.629,42.9,46.747c1.416,0.137,2.832,0.186,4.19,0.186    c13.778,0,26.367-6.063,35.028-15.78c0.967-1.104,0.049-2.287-1.357-1.807C167.253,308.199,161.501,309.273,155.515,309.273z"/><path class="st1" d="M438.259,208.033c-16.738-14.746-39.727-32.637-39.727-32.637h-0.254    c-12.979-10.528-29.473-16.7-47.197-16.651l-18.115-17.861v0.137c-7.373-7.783-17.987-12.383-29.502-11.357    c-14.199,1.241-25.635,10.528-30.527,22.94c-4.834-3.223-10.635-5.107-16.885-5.107c-5.986,0-11.524,1.768-16.22,4.755    c-4.991-12.226-16.319-21.377-30.381-22.588c-11.514-1.025-22.129,3.574-29.502,11.357l0.01-0.137l-18.125,17.861    c-17.714-0.049-34.219,6.123-47.197,16.651h-0.254c0,0-22.988,17.891-39.727,32.637c-16.689,14.687-27.5,36.522-29.629,60.664    c-0.254,2.764-0.342,5.586-0.342,8.319c0,48.398,36.973,89.483,86.065,93.838c2.792,0.215,5.527,0.323,8.291,0.323    c45.947,0,85.234-33.331,92.841-78.634c7.169,4.053,15.342,6.582,24.18,6.582c9.141,0,17.588-2.666,24.922-6.991    c7.432,45.498,46.816,79.043,92.881,79.043c2.773,0,5.507-0.108,8.301-0.323c49.091-4.354,86.064-45.439,86.064-93.838    c0-2.733-0.087-5.556-0.341-8.319C465.759,244.556,454.949,222.72,438.259,208.033z M201.872,282.496    c-2.901,32.821-30.488,57.548-62.842,57.548c-1.835,0-3.74-0.049-5.625-0.214c-32.841-2.843-57.627-30.479-57.627-62.813    c0-1.903,0.068-3.76,0.254-5.508c2.862-32.949,30.459-57.763,62.774-57.763c0.019,0,0.049,0,0.049,0    c1.904,0,3.691,0.058,5.42,0.243c33.065,2.853,57.831,30.479,57.831,62.842c0,1.827-0.088,3.702-0.244,5.665H201.872z     M256.062,275.005c-13.936-0.028-25.234-11.308-25.254-25.214c0.02-13.965,11.318-25.244,25.254-25.274    c13.936,0.03,25.225,11.31,25.225,25.274C281.287,263.697,269.998,274.977,256.062,275.005z M379.509,339.83    c-1.876,0.165-3.789,0.214-5.625,0.214c-32.343,0-59.941-24.727-62.842-57.548h0.01c-0.156-1.963-0.234-3.838-0.234-5.665    c0-32.362,24.766-59.989,57.822-62.842c1.728-0.186,3.516-0.243,5.42-0.243c0.019,0,0.019,0,0.049,0    c32.324,0,59.912,24.813,62.773,57.763c0.195,1.748,0.264,3.604,0.264,5.508C437.146,309.352,412.351,336.987,379.509,339.83z"/><path class="st1" d="M390.554,309.273c-1.563,0-3.194-0.049-4.805-0.187c-28.066-2.442-49.268-26.054-49.268-53.711    c0-1.025-0.049-2.041,0.068-3.007c0.215-1.72-1.074-2.364-2.07-0.811c-4.022,6.2-6.659,13.428-7.343,21.328    c-0.137,1.317-0.186,2.686-0.186,4.111c0,24.062,18.457,44.629,42.9,46.747c1.417,0.137,2.833,0.186,4.19,0.186    c13.779,0,26.367-6.063,35.029-15.78c0.966-1.104,0.049-2.287-1.358-1.807C402.292,308.199,396.54,309.273,390.554,309.273z"/><rect class="st0" height="512" width="512"/></g></svg>