<?xml version="1.0" ?><!DOCTYPE svg  PUBLIC '-//W3C//DTD SVG 1.1//EN'  'http://www.w3.org/Graphics/SVG/1.1/DTD/svg11.dtd'><svg height="512px" id="icon_design" style="enable-background:new 0 0 512 512;" version="1.1" viewBox="0 0 512 512" width="512px" xml:space="preserve" xmlns="http://www.w3.org/2000/svg" xmlns:xlink="http://www.w3.org/1999/xlink"><style type="text/css"><![CDATA[
	.st0{fill:none;}
	.st1{fill:#373737;}
]]></style><g><path class="st1" d="M481.225,393.647c-1.483,0.062-2.884,0.934-3.484,2.116c-7.354,14.685-34.453,35.8-53.131,44.376    c-20.336,9.334-80.934,32.119-145.989-3.63c-65.129-35.748-118.778-71.248-171.804-65.574    c-53.036,5.672-92.031,43.039-92.331,53.099c-0.062,1.607,1.078,3.049,2.748,3.505c1.659,0.488,2.634,0.011,4.553-1.4    c15.017-11.013,49.458-26.954,81.867-29.256c49.199-3.495,89.593,24.216,147.141,59.291    c55.215,33.726,99.093,30.812,130.756,25.522c24.578-4.086,67.534-17.827,87.467-40.031    c10.227-11.626,18.481-29.142,17.693-39.845c-0.208-2.312-0.727-4.438-1.867-6.398C484.129,394.3,482.687,393.585,481.225,393.647    z"/><path class="st1" d="M118.535,348.233c55.411,0.694,106.571,35.322,166.4,67.835c24.351,13.348,47.654,17.703,68.365,17.725    c30.043,0.031,54.456-9.458,65.46-14.551c0.207-0.083,0.456-0.238,0.674-0.332c-1.368-16.034-12.579-46.12-20.658-58.803    c-6.492-9.873-18.927-17.278-27.556-21.592l-99.985-224.591c3.309-7.332,7.073-17.589,7.094-26.954    c0-1.182-0.094-2.344-0.208-3.474c-2.302-19.156-20.502-56.18-28.26-63.407c-2.375-2.116-5.776-2.77-9.541-2.77    c-11.252,0.156-26.736,5.891-31.589,12.818c-1.131,1.701-1.432,3.9-1.462,6.544c0.093,15.172,11.989,48.151,20.493,61.685    c6.242,9.729,18.148,17.008,26.621,21.416l5.621,12.622c-17.786,9.282-36.101,23.023-51.056,40.259    c-15.753,18.347-27.929,40.809-28.063,65.969c-0.032,5.745,0.705,11.543,2.157,17.299    C161.968,270.275,134.796,299.345,118.535,348.233z M230.977,191.592c11.646-13.513,26.922-25.077,40.892-32.564l65.896,147.992    c-5.683,1.017-13.783,2.033-23.438,1.992c-22.805,0-53.41-5.507-82.147-29.588c-17.07-14.551-22.09-27.67-22.266-40.789    C209.799,223.596,217.919,206.661,230.977,191.592z M232.781,315.337c29.214,17.838,58.875,22.764,81.287,22.764h0.259    c16.314,0,28.862-2.344,35.562-3.941l5.021,11.274c-3.133,7.279-6.648,17.194-6.648,26.299c0,1.225,0.031,2.469,0.219,3.724    c1.036,7.985,4.945,19.061,9.654,29.806c-34.877-17.361-85.394-38.093-144.186-48.339c-0.208-0.041-0.353-0.155-0.56-0.177    c-3.775-0.891-5.839-2.593-5.248-6.18C210.898,339.47,217.556,325.521,232.781,315.337z"/><path class="st1" d="M247.953,276.301c16.936,5.901,35.386-3.049,41.256-19.933c5.911-16.915-2.987-35.354-19.871-41.255    c-16.863-5.943-35.354,2.997-41.276,19.891C222.192,251.878,231.101,270.369,247.953,276.301z"/><rect class="st0" height="512" width="512"/></g></svg>